<?xml version="1.0" encoding="UTF-8"?>
<!DOCTYPE svg PUBLIC "-//W3C//DTD SVG 1.1//EN" "http://www.w3.org/Graphics/SVG/1.1/DTD/svg11.dtd">
<!-- Creator: CorelDRAW 2018 -->
<svg xmlns="http://www.w3.org/2000/svg" xml:space="preserve" width="1920px" height="1080px" version="1.1" style="shape-rendering:geometricPrecision; text-rendering:geometricPrecision; image-rendering:optimizeQuality; fill-rule:evenodd; clip-rule:evenodd"
viewBox="0 0 1920 1080"
 xmlns:xlink="http://www.w3.org/1999/xlink">
 <defs>
  <style type="text/css">
   <![CDATA[
    .fil0 {fill:#0059FF;fill-opacity:0.231373}
    .fil1 {fill:#00FF1E;fill-opacity:0.231373}
    .fil2 {fill:#FF0026;fill-opacity:0.231373}
   ]]>
  </style>
 </defs>
 <g id="Слой_x0020_1">
  <metadata id="CorelCorpID_0Corel-Layer"/>
  <path class="fil0" d="M630.49 342.67c214.69,0 404.96,104.4 522.92,265.18 -70.19,89.51 -112.04,202.3 -112.04,324.87 0,51.12 7.31,100.54 20.89,147.28l-1062.26 0 0 -239.93c67.96,-285.25 324.44,-497.4 630.49,-497.4l0 0z"/>
  <path class="fil1" d="M1513.94 408.54c-265.48,27.23 -472.57,251.52 -472.57,524.18 0,51.12 7.31,100.54 20.89,147.28l857.74 0 0 -489.09c-13.6,1.23 -27.36,1.89 -41.28,1.89 -149.6,0 -282.24,-72.5 -364.78,-184.26z"/>
  <path class="fil2" d="M1447.47 0c-14.22,43.98 -21.94,90.89 -21.94,139.61 0,250.29 202.9,453.19 453.19,453.19 13.92,0 27.68,-0.66 41.28,-1.89l0 -590.91 -472.53 0 0 0z"/>
 </g>
</svg>
