<?xml version="1.0" encoding="UTF-8"?>
<!DOCTYPE svg PUBLIC "-//W3C//DTD SVG 1.1//EN" "http://www.w3.org/Graphics/SVG/1.1/DTD/svg11.dtd">
<!-- Creator: CorelDRAW 2018 -->
<svg xmlns="http://www.w3.org/2000/svg" xml:space="preserve" width="1920px" height="1080px" version="1.1" style="shape-rendering:geometricPrecision; text-rendering:geometricPrecision; image-rendering:optimizeQuality; fill-rule:evenodd; clip-rule:evenodd"
viewBox="0 0 1920 1080"
 xmlns:xlink="http://www.w3.org/1999/xlink">
 <defs>
  <style type="text/css">
   <![CDATA[
    .fil0 {fill:#C2D7FF}
    .fil1 {fill:#DBFFDF}
    .fil2 {fill:#FFEBEE}
   ]]>
  </style>
 </defs>
 <g id="Слой_x0020_1">
  <metadata id="CorelCorpID_0Corel-Layer"/>
  <path class="fil0" d="M630.49 342.67c357.98,0 648.17,290.2 648.17,648.17 0,30.25 -2.12,60.01 -6.13,89.16l-1272.53 0 0 -239.93c67.96,-285.25 324.44,-497.4 630.49,-497.4z"/>
  <path class="fil1" d="M1568.34 405.76c-291.04,0 -526.97,235.93 -526.97,526.96 0,51.12 7.31,100.54 20.89,147.28l857.74 0 0 -539.7c-93.27,-83.64 -216.52,-134.54 -351.66,-134.54z"/>
  <path class="fil2" d="M1447.47 0c-14.22,43.98 -21.94,90.89 -21.94,139.61 0,250.29 202.9,453.19 453.19,453.19 13.92,0 27.68,-0.66 41.28,-1.89l0 -590.91 -472.53 0z"/>
 </g>
</svg>
